<svg width="7" height="7" viewBox="0 0 7 7" fill="none" xmlns="http://www.w3.org/2000/svg">
<path d="M3.75108 0.533298H3.74149C1.97415 0.530632 0.539353 1.96117 0.536686 3.7285C0.534019 5.49584 1.96455 6.93064 3.73188 6.9333H3.74149C5.50882 6.93597 6.94362 5.50544 6.94628 3.7381C6.94895 1.97077 5.51842 0.535965 3.75108 0.533298ZM4.49775 4.48957C4.29695 4.6893 4.02482 4.80104 3.74149 4.79997C3.15242 4.7969 2.67735 4.3169 2.68042 3.72784C2.68189 3.44584 2.79495 3.17597 2.99482 2.97703C3.19335 2.77957 3.46149 2.6681 3.74149 2.66663C4.33055 2.6697 4.80562 3.1497 4.80255 3.73877C4.80108 4.02077 4.68802 4.29064 4.48815 4.48957H4.49775Z" fill="#4D5AE5"/>
</svg>
